<svg xmlns="http://www.w3.org/2000/svg" width="200" height="720" viewBox="0 0 200 720" fill="none">
<!-- Подвійна спіраль. Висота — рівно три витки, тому зсув на -33.33%
     по вертикалі виглядає як повний оберт і стикується без шва. -->
<g stroke="#8A8A90" stroke-linecap="round">
<g><path d="M100.0 0 L100.0 0" stroke-width="1.9" opacity="0.6"/>
<path d="M125.2 16 L74.8 16" stroke-width="1.86" opacity="0.58"/>
<path d="M146.1 32 L53.9 32" stroke-width="1.75" opacity="0.52"/>
<path d="M159.0 48 L41.0 48" stroke-width="1.59" opacity="0.44"/>
<path d="M161.7 64 L38.3 64" stroke-width="1.4" opacity="0.35"/>
<path d="M153.7 80 L46.3 80" stroke-width="1.23" opacity="0.26"/>
<path d="M136.4 96 L63.6 96" stroke-width="1.09" opacity="0.18"/>
<path d="M112.9 112 L87.1 112" stroke-width="1.01" opacity="0.15"/>
<path d="M87.1 128 L112.9 128" stroke-width="1.01" opacity="0.15"/>
<path d="M63.6 144 L136.4 144" stroke-width="1.09" opacity="0.18"/>
<path d="M46.3 160 L153.7 160" stroke-width="1.22" opacity="0.25"/>
<path d="M38.3 176 L161.7 176" stroke-width="1.4" opacity="0.35"/>
<path d="M41.0 192 L159.0 192" stroke-width="1.59" opacity="0.44"/>
<path d="M53.9 208 L146.1 208" stroke-width="1.75" opacity="0.52"/>
<path d="M74.8 224 L125.2 224" stroke-width="1.86" opacity="0.58"/>
<path d="M100.0 240 L100.0 240" stroke-width="1.9" opacity="0.6"/>
<path d="M125.2 256 L74.8 256" stroke-width="1.86" opacity="0.58"/>
<path d="M146.1 272 L53.9 272" stroke-width="1.75" opacity="0.52"/>
<path d="M159.0 288 L41.0 288" stroke-width="1.59" opacity="0.44"/>
<path d="M161.7 304 L38.3 304" stroke-width="1.4" opacity="0.35"/>
<path d="M153.7 320 L46.3 320" stroke-width="1.23" opacity="0.26"/>
<path d="M136.4 336 L63.6 336" stroke-width="1.09" opacity="0.18"/>
<path d="M112.9 352 L87.1 352" stroke-width="1.01" opacity="0.15"/>
<path d="M87.1 368 L112.9 368" stroke-width="1.01" opacity="0.15"/>
<path d="M63.6 384 L136.4 384" stroke-width="1.09" opacity="0.18"/>
<path d="M46.3 400 L153.7 400" stroke-width="1.23" opacity="0.26"/>
<path d="M38.3 416 L161.7 416" stroke-width="1.4" opacity="0.35"/>
<path d="M41.0 432 L159.0 432" stroke-width="1.59" opacity="0.44"/>
<path d="M53.9 448 L146.1 448" stroke-width="1.75" opacity="0.52"/>
<path d="M74.8 464 L125.2 464" stroke-width="1.86" opacity="0.58"/>
<path d="M100.0 480 L100.0 480" stroke-width="1.9" opacity="0.6"/>
<path d="M125.2 496 L74.8 496" stroke-width="1.86" opacity="0.58"/>
<path d="M146.1 512 L53.9 512" stroke-width="1.75" opacity="0.52"/>
<path d="M159.0 528 L41.0 528" stroke-width="1.59" opacity="0.44"/>
<path d="M161.7 544 L38.3 544" stroke-width="1.4" opacity="0.35"/>
<path d="M153.7 560 L46.3 560" stroke-width="1.23" opacity="0.26"/>
<path d="M136.4 576 L63.6 576" stroke-width="1.09" opacity="0.18"/>
<path d="M112.9 592 L87.1 592" stroke-width="1.01" opacity="0.15"/>
<path d="M87.1 608 L112.9 608" stroke-width="1.01" opacity="0.15"/>
<path d="M63.6 624 L136.4 624" stroke-width="1.09" opacity="0.18"/>
<path d="M46.3 640 L153.7 640" stroke-width="1.22" opacity="0.25"/>
<path d="M38.3 656 L161.7 656" stroke-width="1.4" opacity="0.35"/>
<path d="M41.0 672 L159.0 672" stroke-width="1.59" opacity="0.44"/>
<path d="M53.9 688 L146.1 688" stroke-width="1.75" opacity="0.52"/>
<path d="M74.8 704 L125.2 704" stroke-width="1.86" opacity="0.58"/></g>
<g><path d="M100.0 0 L91.9 5" stroke-width="1.5" opacity="0.3"/>
<path d="M91.9 5 L84.0 10" stroke-width="1.51" opacity="0.3"/>
<path d="M84.0 10 L76.3 15" stroke-width="1.53" opacity="0.31"/>
<path d="M76.3 15 L69.0 20" stroke-width="1.56" opacity="0.33"/>
<path d="M69.0 20 L62.3 25" stroke-width="1.6" opacity="0.35"/>
<path d="M62.3 25 L56.2 30" stroke-width="1.65" opacity="0.37"/>
<path d="M56.2 30 L50.8 35" stroke-width="1.72" opacity="0.4"/>
<path d="M50.8 35 L46.3 40" stroke-width="1.79" opacity="0.44"/>
<path d="M46.3 40 L42.7 45" stroke-width="1.87" opacity="0.47"/>
<path d="M42.7 45 L40.1 50" stroke-width="1.96" opacity="0.52"/>
<path d="M40.1 50 L38.5 55" stroke-width="2.06" opacity="0.56"/>
<path d="M38.5 55 L38.0 60" stroke-width="2.15" opacity="0.6"/>
<path d="M38.0 60 L38.5 65" stroke-width="2.25" opacity="0.65"/>
<path d="M38.5 65 L40.1 70" stroke-width="2.35" opacity="0.7"/>
<path d="M40.1 70 L42.7 75" stroke-width="2.44" opacity="0.74"/>
<path d="M42.7 75 L46.3 80" stroke-width="2.54" opacity="0.78"/>
<path d="M46.3 80 L50.8 85" stroke-width="2.62" opacity="0.82"/>
<path d="M50.8 85 L56.2 90" stroke-width="2.71" opacity="0.86"/>
<path d="M56.2 90 L62.3 95" stroke-width="2.78" opacity="0.9"/>
<path d="M62.3 95 L69.0 100" stroke-width="2.85" opacity="0.93"/>
<path d="M69.0 100 L76.3 105" stroke-width="2.9" opacity="0.95"/>
<path d="M76.3 105 L84.0 110" stroke-width="2.94" opacity="0.97"/>
<path d="M84.0 110 L91.9 115" stroke-width="2.97" opacity="0.99"/>
<path d="M91.9 115 L100.0 120" stroke-width="2.99" opacity="1.0"/>
<path d="M100.0 120 L108.1 125" stroke-width="3.0" opacity="1.0"/>
<path d="M108.1 125 L116.0 130" stroke-width="2.99" opacity="1.0"/>
<path d="M116.0 130 L123.7 135" stroke-width="2.97" opacity="0.99"/>
<path d="M123.7 135 L131.0 140" stroke-width="2.94" opacity="0.97"/>
<path d="M131.0 140 L137.7 145" stroke-width="2.9" opacity="0.95"/>
<path d="M137.7 145 L143.8 150" stroke-width="2.85" opacity="0.93"/>
<path d="M143.8 150 L149.2 155" stroke-width="2.78" opacity="0.9"/>
<path d="M149.2 155 L153.7 160" stroke-width="2.71" opacity="0.86"/>
<path d="M153.7 160 L157.3 165" stroke-width="2.63" opacity="0.83"/>
<path d="M157.3 165 L159.9 170" stroke-width="2.54" opacity="0.78"/>
<path d="M159.9 170 L161.5 175" stroke-width="2.44" opacity="0.74"/>
<path d="M161.5 175 L162.0 180" stroke-width="2.35" opacity="0.7"/>
<path d="M162.0 180 L161.5 185" stroke-width="2.25" opacity="0.65"/>
<path d="M161.5 185 L159.9 190" stroke-width="2.15" opacity="0.6"/>
<path d="M159.9 190 L157.3 195" stroke-width="2.06" opacity="0.56"/>
<path d="M157.3 195 L153.7 200" stroke-width="1.96" opacity="0.52"/>
<path d="M153.7 200 L149.2 205" stroke-width="1.87" opacity="0.47"/>
<path d="M149.2 205 L143.8 210" stroke-width="1.79" opacity="0.44"/>
<path d="M143.8 210 L137.7 215" stroke-width="1.72" opacity="0.4"/>
<path d="M137.7 215 L131.0 220" stroke-width="1.65" opacity="0.37"/>
<path d="M131.0 220 L123.7 225" stroke-width="1.6" opacity="0.35"/>
<path d="M123.7 225 L116.0 230" stroke-width="1.56" opacity="0.33"/>
<path d="M116.0 230 L108.1 235" stroke-width="1.53" opacity="0.31"/>
<path d="M108.1 235 L100.0 240" stroke-width="1.51" opacity="0.3"/>
<path d="M100.0 240 L91.9 245" stroke-width="1.5" opacity="0.3"/>
<path d="M91.9 245 L84.0 250" stroke-width="1.51" opacity="0.3"/>
<path d="M84.0 250 L76.3 255" stroke-width="1.53" opacity="0.31"/>
<path d="M76.3 255 L69.0 260" stroke-width="1.56" opacity="0.33"/>
<path d="M69.0 260 L62.3 265" stroke-width="1.6" opacity="0.35"/>
<path d="M62.3 265 L56.2 270" stroke-width="1.65" opacity="0.37"/>
<path d="M56.2 270 L50.8 275" stroke-width="1.72" opacity="0.4"/>
<path d="M50.8 275 L46.3 280" stroke-width="1.79" opacity="0.44"/>
<path d="M46.3 280 L42.7 285" stroke-width="1.87" opacity="0.47"/>
<path d="M42.7 285 L40.1 290" stroke-width="1.96" opacity="0.52"/>
<path d="M40.1 290 L38.5 295" stroke-width="2.06" opacity="0.56"/>
<path d="M38.5 295 L38.0 300" stroke-width="2.15" opacity="0.6"/>
<path d="M38.0 300 L38.5 305" stroke-width="2.25" opacity="0.65"/>
<path d="M38.5 305 L40.1 310" stroke-width="2.35" opacity="0.7"/>
<path d="M40.1 310 L42.7 315" stroke-width="2.44" opacity="0.74"/>
<path d="M42.7 315 L46.3 320" stroke-width="2.54" opacity="0.78"/>
<path d="M46.3 320 L50.8 325" stroke-width="2.62" opacity="0.82"/>
<path d="M50.8 325 L56.2 330" stroke-width="2.71" opacity="0.86"/>
<path d="M56.2 330 L62.3 335" stroke-width="2.78" opacity="0.9"/>
<path d="M62.3 335 L69.0 340" stroke-width="2.85" opacity="0.93"/>
<path d="M69.0 340 L76.3 345" stroke-width="2.9" opacity="0.95"/>
<path d="M76.3 345 L84.0 350" stroke-width="2.94" opacity="0.97"/>
<path d="M84.0 350 L91.9 355" stroke-width="2.97" opacity="0.99"/>
<path d="M91.9 355 L100.0 360" stroke-width="2.99" opacity="1.0"/>
<path d="M100.0 360 L108.1 365" stroke-width="3.0" opacity="1.0"/>
<path d="M108.1 365 L116.0 370" stroke-width="2.99" opacity="1.0"/>
<path d="M116.0 370 L123.7 375" stroke-width="2.97" opacity="0.99"/>
<path d="M123.7 375 L131.0 380" stroke-width="2.94" opacity="0.97"/>
<path d="M131.0 380 L137.7 385" stroke-width="2.9" opacity="0.95"/>
<path d="M137.7 385 L143.8 390" stroke-width="2.85" opacity="0.93"/>
<path d="M143.8 390 L149.2 395" stroke-width="2.78" opacity="0.9"/>
<path d="M149.2 395 L153.7 400" stroke-width="2.71" opacity="0.86"/>
<path d="M153.7 400 L157.3 405" stroke-width="2.62" opacity="0.82"/>
<path d="M157.3 405 L159.9 410" stroke-width="2.54" opacity="0.78"/>
<path d="M159.9 410 L161.5 415" stroke-width="2.44" opacity="0.74"/>
<path d="M161.5 415 L162.0 420" stroke-width="2.35" opacity="0.7"/>
<path d="M162.0 420 L161.5 425" stroke-width="2.25" opacity="0.65"/>
<path d="M161.5 425 L159.9 430" stroke-width="2.15" opacity="0.6"/>
<path d="M159.9 430 L157.3 435" stroke-width="2.06" opacity="0.56"/>
<path d="M157.3 435 L153.7 440" stroke-width="1.96" opacity="0.52"/>
<path d="M153.7 440 L149.2 445" stroke-width="1.87" opacity="0.47"/>
<path d="M149.2 445 L143.8 450" stroke-width="1.79" opacity="0.44"/>
<path d="M143.8 450 L137.7 455" stroke-width="1.72" opacity="0.4"/>
<path d="M137.7 455 L131.0 460" stroke-width="1.65" opacity="0.37"/>
<path d="M131.0 460 L123.7 465" stroke-width="1.6" opacity="0.35"/>
<path d="M123.7 465 L116.0 470" stroke-width="1.56" opacity="0.33"/>
<path d="M116.0 470 L108.1 475" stroke-width="1.53" opacity="0.31"/>
<path d="M108.1 475 L100.0 480" stroke-width="1.51" opacity="0.3"/>
<path d="M100.0 480 L91.9 485" stroke-width="1.5" opacity="0.3"/>
<path d="M91.9 485 L84.0 490" stroke-width="1.51" opacity="0.3"/>
<path d="M84.0 490 L76.3 495" stroke-width="1.53" opacity="0.31"/>
<path d="M76.3 495 L69.0 500" stroke-width="1.56" opacity="0.33"/>
<path d="M69.0 500 L62.3 505" stroke-width="1.6" opacity="0.35"/>
<path d="M62.3 505 L56.2 510" stroke-width="1.65" opacity="0.37"/>
<path d="M56.2 510 L50.8 515" stroke-width="1.72" opacity="0.4"/>
<path d="M50.8 515 L46.3 520" stroke-width="1.79" opacity="0.44"/>
<path d="M46.3 520 L42.7 525" stroke-width="1.87" opacity="0.47"/>
<path d="M42.7 525 L40.1 530" stroke-width="1.96" opacity="0.52"/>
<path d="M40.1 530 L38.5 535" stroke-width="2.06" opacity="0.56"/>
<path d="M38.5 535 L38.0 540" stroke-width="2.15" opacity="0.6"/>
<path d="M38.0 540 L38.5 545" stroke-width="2.25" opacity="0.65"/>
<path d="M38.5 545 L40.1 550" stroke-width="2.35" opacity="0.7"/>
<path d="M40.1 550 L42.7 555" stroke-width="2.44" opacity="0.74"/>
<path d="M42.7 555 L46.3 560" stroke-width="2.54" opacity="0.78"/>
<path d="M46.3 560 L50.8 565" stroke-width="2.63" opacity="0.83"/>
<path d="M50.8 565 L56.2 570" stroke-width="2.71" opacity="0.86"/>
<path d="M56.2 570 L62.3 575" stroke-width="2.78" opacity="0.9"/>
<path d="M62.3 575 L69.0 580" stroke-width="2.85" opacity="0.93"/>
<path d="M69.0 580 L76.3 585" stroke-width="2.9" opacity="0.95"/>
<path d="M76.3 585 L84.0 590" stroke-width="2.94" opacity="0.97"/>
<path d="M84.0 590 L91.9 595" stroke-width="2.97" opacity="0.99"/>
<path d="M91.9 595 L100.0 600" stroke-width="2.99" opacity="1.0"/>
<path d="M100.0 600 L108.1 605" stroke-width="3.0" opacity="1.0"/>
<path d="M108.1 605 L116.0 610" stroke-width="2.99" opacity="1.0"/>
<path d="M116.0 610 L123.7 615" stroke-width="2.97" opacity="0.99"/>
<path d="M123.7 615 L131.0 620" stroke-width="2.94" opacity="0.97"/>
<path d="M131.0 620 L137.7 625" stroke-width="2.9" opacity="0.95"/>
<path d="M137.7 625 L143.8 630" stroke-width="2.85" opacity="0.93"/>
<path d="M143.8 630 L149.2 635" stroke-width="2.78" opacity="0.9"/>
<path d="M149.2 635 L153.7 640" stroke-width="2.71" opacity="0.86"/>
<path d="M153.7 640 L157.3 645" stroke-width="2.63" opacity="0.83"/>
<path d="M157.3 645 L159.9 650" stroke-width="2.54" opacity="0.78"/>
<path d="M159.9 650 L161.5 655" stroke-width="2.44" opacity="0.74"/>
<path d="M161.5 655 L162.0 660" stroke-width="2.35" opacity="0.7"/>
<path d="M162.0 660 L161.5 665" stroke-width="2.25" opacity="0.65"/>
<path d="M161.5 665 L159.9 670" stroke-width="2.15" opacity="0.6"/>
<path d="M159.9 670 L157.3 675" stroke-width="2.06" opacity="0.56"/>
<path d="M157.3 675 L153.7 680" stroke-width="1.96" opacity="0.52"/>
<path d="M153.7 680 L149.2 685" stroke-width="1.87" opacity="0.47"/>
<path d="M149.2 685 L143.8 690" stroke-width="1.79" opacity="0.44"/>
<path d="M143.8 690 L137.7 695" stroke-width="1.72" opacity="0.4"/>
<path d="M137.7 695 L131.0 700" stroke-width="1.65" opacity="0.37"/>
<path d="M131.0 700 L123.7 705" stroke-width="1.6" opacity="0.35"/>
<path d="M123.7 705 L116.0 710" stroke-width="1.56" opacity="0.33"/>
<path d="M116.0 710 L108.1 715" stroke-width="1.53" opacity="0.31"/>
<path d="M108.1 715 L100.0 720" stroke-width="1.51" opacity="0.3"/></g>
<g><path d="M100.0 0 L108.1 5" stroke-width="3.0" opacity="1.0"/>
<path d="M108.1 5 L116.0 10" stroke-width="2.99" opacity="1.0"/>
<path d="M116.0 10 L123.7 15" stroke-width="2.97" opacity="0.99"/>
<path d="M123.7 15 L131.0 20" stroke-width="2.94" opacity="0.97"/>
<path d="M131.0 20 L137.7 25" stroke-width="2.9" opacity="0.95"/>
<path d="M137.7 25 L143.8 30" stroke-width="2.85" opacity="0.93"/>
<path d="M143.8 30 L149.2 35" stroke-width="2.78" opacity="0.9"/>
<path d="M149.2 35 L153.7 40" stroke-width="2.71" opacity="0.86"/>
<path d="M153.7 40 L157.3 45" stroke-width="2.62" opacity="0.82"/>
<path d="M157.3 45 L159.9 50" stroke-width="2.54" opacity="0.78"/>
<path d="M159.9 50 L161.5 55" stroke-width="2.44" opacity="0.74"/>
<path d="M161.5 55 L162.0 60" stroke-width="2.35" opacity="0.7"/>
<path d="M162.0 60 L161.5 65" stroke-width="2.25" opacity="0.65"/>
<path d="M161.5 65 L159.9 70" stroke-width="2.15" opacity="0.6"/>
<path d="M159.9 70 L157.3 75" stroke-width="2.06" opacity="0.56"/>
<path d="M157.3 75 L153.7 80" stroke-width="1.96" opacity="0.52"/>
<path d="M153.7 80 L149.2 85" stroke-width="1.88" opacity="0.48"/>
<path d="M149.2 85 L143.8 90" stroke-width="1.79" opacity="0.44"/>
<path d="M143.8 90 L137.7 95" stroke-width="1.72" opacity="0.4"/>
<path d="M137.7 95 L131.0 100" stroke-width="1.65" opacity="0.37"/>
<path d="M131.0 100 L123.7 105" stroke-width="1.6" opacity="0.35"/>
<path d="M123.7 105 L116.0 110" stroke-width="1.56" opacity="0.33"/>
<path d="M116.0 110 L108.1 115" stroke-width="1.53" opacity="0.31"/>
<path d="M108.1 115 L100.0 120" stroke-width="1.51" opacity="0.3"/>
<path d="M100.0 120 L91.9 125" stroke-width="1.5" opacity="0.3"/>
<path d="M91.9 125 L84.0 130" stroke-width="1.51" opacity="0.3"/>
<path d="M84.0 130 L76.3 135" stroke-width="1.53" opacity="0.31"/>
<path d="M76.3 135 L69.0 140" stroke-width="1.56" opacity="0.33"/>
<path d="M69.0 140 L62.3 145" stroke-width="1.6" opacity="0.35"/>
<path d="M62.3 145 L56.2 150" stroke-width="1.65" opacity="0.37"/>
<path d="M56.2 150 L50.8 155" stroke-width="1.72" opacity="0.4"/>
<path d="M50.8 155 L46.3 160" stroke-width="1.79" opacity="0.44"/>
<path d="M46.3 160 L42.7 165" stroke-width="1.87" opacity="0.47"/>
<path d="M42.7 165 L40.1 170" stroke-width="1.96" opacity="0.52"/>
<path d="M40.1 170 L38.5 175" stroke-width="2.06" opacity="0.56"/>
<path d="M38.5 175 L38.0 180" stroke-width="2.15" opacity="0.6"/>
<path d="M38.0 180 L38.5 185" stroke-width="2.25" opacity="0.65"/>
<path d="M38.5 185 L40.1 190" stroke-width="2.35" opacity="0.7"/>
<path d="M40.1 190 L42.7 195" stroke-width="2.44" opacity="0.74"/>
<path d="M42.7 195 L46.3 200" stroke-width="2.54" opacity="0.78"/>
<path d="M46.3 200 L50.8 205" stroke-width="2.62" opacity="0.82"/>
<path d="M50.8 205 L56.2 210" stroke-width="2.71" opacity="0.86"/>
<path d="M56.2 210 L62.3 215" stroke-width="2.78" opacity="0.9"/>
<path d="M62.3 215 L69.0 220" stroke-width="2.85" opacity="0.93"/>
<path d="M69.0 220 L76.3 225" stroke-width="2.9" opacity="0.95"/>
<path d="M76.3 225 L84.0 230" stroke-width="2.94" opacity="0.97"/>
<path d="M84.0 230 L91.9 235" stroke-width="2.97" opacity="0.99"/>
<path d="M91.9 235 L100.0 240" stroke-width="2.99" opacity="1.0"/>
<path d="M100.0 240 L108.1 245" stroke-width="3.0" opacity="1.0"/>
<path d="M108.1 245 L116.0 250" stroke-width="2.99" opacity="1.0"/>
<path d="M116.0 250 L123.7 255" stroke-width="2.97" opacity="0.99"/>
<path d="M123.7 255 L131.0 260" stroke-width="2.94" opacity="0.97"/>
<path d="M131.0 260 L137.7 265" stroke-width="2.9" opacity="0.95"/>
<path d="M137.7 265 L143.8 270" stroke-width="2.85" opacity="0.93"/>
<path d="M143.8 270 L149.2 275" stroke-width="2.78" opacity="0.9"/>
<path d="M149.2 275 L153.7 280" stroke-width="2.71" opacity="0.86"/>
<path d="M153.7 280 L157.3 285" stroke-width="2.63" opacity="0.83"/>
<path d="M157.3 285 L159.9 290" stroke-width="2.54" opacity="0.78"/>
<path d="M159.9 290 L161.5 295" stroke-width="2.44" opacity="0.74"/>
<path d="M161.5 295 L162.0 300" stroke-width="2.35" opacity="0.7"/>
<path d="M162.0 300 L161.5 305" stroke-width="2.25" opacity="0.65"/>
<path d="M161.5 305 L159.9 310" stroke-width="2.15" opacity="0.6"/>
<path d="M159.9 310 L157.3 315" stroke-width="2.06" opacity="0.56"/>
<path d="M157.3 315 L153.7 320" stroke-width="1.96" opacity="0.52"/>
<path d="M153.7 320 L149.2 325" stroke-width="1.88" opacity="0.48"/>
<path d="M149.2 325 L143.8 330" stroke-width="1.79" opacity="0.44"/>
<path d="M143.8 330 L137.7 335" stroke-width="1.72" opacity="0.4"/>
<path d="M137.7 335 L131.0 340" stroke-width="1.65" opacity="0.37"/>
<path d="M131.0 340 L123.7 345" stroke-width="1.6" opacity="0.35"/>
<path d="M123.7 345 L116.0 350" stroke-width="1.56" opacity="0.33"/>
<path d="M116.0 350 L108.1 355" stroke-width="1.53" opacity="0.31"/>
<path d="M108.1 355 L100.0 360" stroke-width="1.51" opacity="0.3"/>
<path d="M100.0 360 L91.9 365" stroke-width="1.5" opacity="0.3"/>
<path d="M91.9 365 L84.0 370" stroke-width="1.51" opacity="0.3"/>
<path d="M84.0 370 L76.3 375" stroke-width="1.53" opacity="0.31"/>
<path d="M76.3 375 L69.0 380" stroke-width="1.56" opacity="0.33"/>
<path d="M69.0 380 L62.3 385" stroke-width="1.6" opacity="0.35"/>
<path d="M62.3 385 L56.2 390" stroke-width="1.65" opacity="0.37"/>
<path d="M56.2 390 L50.8 395" stroke-width="1.72" opacity="0.4"/>
<path d="M50.8 395 L46.3 400" stroke-width="1.79" opacity="0.44"/>
<path d="M46.3 400 L42.7 405" stroke-width="1.88" opacity="0.48"/>
<path d="M42.7 405 L40.1 410" stroke-width="1.96" opacity="0.52"/>
<path d="M40.1 410 L38.5 415" stroke-width="2.06" opacity="0.56"/>
<path d="M38.5 415 L38.0 420" stroke-width="2.15" opacity="0.6"/>
<path d="M38.0 420 L38.5 425" stroke-width="2.25" opacity="0.65"/>
<path d="M38.5 425 L40.1 430" stroke-width="2.35" opacity="0.7"/>
<path d="M40.1 430 L42.7 435" stroke-width="2.44" opacity="0.74"/>
<path d="M42.7 435 L46.3 440" stroke-width="2.54" opacity="0.78"/>
<path d="M46.3 440 L50.8 445" stroke-width="2.63" opacity="0.83"/>
<path d="M50.8 445 L56.2 450" stroke-width="2.71" opacity="0.86"/>
<path d="M56.2 450 L62.3 455" stroke-width="2.78" opacity="0.9"/>
<path d="M62.3 455 L69.0 460" stroke-width="2.85" opacity="0.93"/>
<path d="M69.0 460 L76.3 465" stroke-width="2.9" opacity="0.95"/>
<path d="M76.3 465 L84.0 470" stroke-width="2.94" opacity="0.97"/>
<path d="M84.0 470 L91.9 475" stroke-width="2.97" opacity="0.99"/>
<path d="M91.9 475 L100.0 480" stroke-width="2.99" opacity="1.0"/>
<path d="M100.0 480 L108.1 485" stroke-width="3.0" opacity="1.0"/>
<path d="M108.1 485 L116.0 490" stroke-width="2.99" opacity="1.0"/>
<path d="M116.0 490 L123.7 495" stroke-width="2.97" opacity="0.99"/>
<path d="M123.7 495 L131.0 500" stroke-width="2.94" opacity="0.97"/>
<path d="M131.0 500 L137.7 505" stroke-width="2.9" opacity="0.95"/>
<path d="M137.7 505 L143.8 510" stroke-width="2.85" opacity="0.93"/>
<path d="M143.8 510 L149.2 515" stroke-width="2.78" opacity="0.9"/>
<path d="M149.2 515 L153.7 520" stroke-width="2.71" opacity="0.86"/>
<path d="M153.7 520 L157.3 525" stroke-width="2.63" opacity="0.83"/>
<path d="M157.3 525 L159.9 530" stroke-width="2.54" opacity="0.78"/>
<path d="M159.9 530 L161.5 535" stroke-width="2.44" opacity="0.74"/>
<path d="M161.5 535 L162.0 540" stroke-width="2.35" opacity="0.7"/>
<path d="M162.0 540 L161.5 545" stroke-width="2.25" opacity="0.65"/>
<path d="M161.5 545 L159.9 550" stroke-width="2.15" opacity="0.6"/>
<path d="M159.9 550 L157.3 555" stroke-width="2.06" opacity="0.56"/>
<path d="M157.3 555 L153.7 560" stroke-width="1.96" opacity="0.52"/>
<path d="M153.7 560 L149.2 565" stroke-width="1.88" opacity="0.48"/>
<path d="M149.2 565 L143.8 570" stroke-width="1.79" opacity="0.44"/>
<path d="M143.8 570 L137.7 575" stroke-width="1.72" opacity="0.4"/>
<path d="M137.7 575 L131.0 580" stroke-width="1.65" opacity="0.37"/>
<path d="M131.0 580 L123.7 585" stroke-width="1.6" opacity="0.35"/>
<path d="M123.7 585 L116.0 590" stroke-width="1.56" opacity="0.33"/>
<path d="M116.0 590 L108.1 595" stroke-width="1.53" opacity="0.31"/>
<path d="M108.1 595 L100.0 600" stroke-width="1.51" opacity="0.3"/>
<path d="M100.0 600 L91.9 605" stroke-width="1.5" opacity="0.3"/>
<path d="M91.9 605 L84.0 610" stroke-width="1.51" opacity="0.3"/>
<path d="M84.0 610 L76.3 615" stroke-width="1.53" opacity="0.31"/>
<path d="M76.3 615 L69.0 620" stroke-width="1.56" opacity="0.33"/>
<path d="M69.0 620 L62.3 625" stroke-width="1.6" opacity="0.35"/>
<path d="M62.3 625 L56.2 630" stroke-width="1.65" opacity="0.37"/>
<path d="M56.2 630 L50.8 635" stroke-width="1.72" opacity="0.4"/>
<path d="M50.8 635 L46.3 640" stroke-width="1.79" opacity="0.44"/>
<path d="M46.3 640 L42.7 645" stroke-width="1.87" opacity="0.47"/>
<path d="M42.7 645 L40.1 650" stroke-width="1.96" opacity="0.52"/>
<path d="M40.1 650 L38.5 655" stroke-width="2.06" opacity="0.56"/>
<path d="M38.5 655 L38.0 660" stroke-width="2.15" opacity="0.6"/>
<path d="M38.0 660 L38.5 665" stroke-width="2.25" opacity="0.65"/>
<path d="M38.5 665 L40.1 670" stroke-width="2.35" opacity="0.7"/>
<path d="M40.1 670 L42.7 675" stroke-width="2.44" opacity="0.74"/>
<path d="M42.7 675 L46.3 680" stroke-width="2.54" opacity="0.78"/>
<path d="M46.3 680 L50.8 685" stroke-width="2.63" opacity="0.83"/>
<path d="M50.8 685 L56.2 690" stroke-width="2.71" opacity="0.86"/>
<path d="M56.2 690 L62.3 695" stroke-width="2.78" opacity="0.9"/>
<path d="M62.3 695 L69.0 700" stroke-width="2.85" opacity="0.93"/>
<path d="M69.0 700 L76.3 705" stroke-width="2.9" opacity="0.95"/>
<path d="M76.3 705 L84.0 710" stroke-width="2.94" opacity="0.97"/>
<path d="M84.0 710 L91.9 715" stroke-width="2.97" opacity="0.99"/>
<path d="M91.9 715 L100.0 720" stroke-width="2.99" opacity="1.0"/></g>
</g></svg>